<mxfile host="app.diagrams.net" modified="2020-10-10T08:14:01.525Z" agent="5.0 (Windows NT 10.0; WOW64) AppleWebKit/537.36 (KHTML, like Gecko) Chrome/76.0.3809.87 Safari/537.36" etag="9xbQHGPppkzrVnJk4dJb" version="13.7.9" type="github">
  <diagram name="幂等" id="74e2e168-ea6b-b213-b513-2b3c1d86103e">
    <mxGraphModel dx="2062" dy="1123" grid="1" gridSize="10" guides="1" tooltips="1" connect="1" arrows="1" fold="1" page="1" pageScale="1" pageWidth="1100" pageHeight="850" background="#ffffff" math="0" shadow="0">
      <root>
        <mxCell id="0" />
        <mxCell id="1" parent="0" />
        <mxCell id="Dr7aWHiYQWJMJAfqMdh1-3" value="IdempotentProperties(配置类)" style="swimlane;childLayout=stackLayout;horizontal=1;startSize=30;horizontalStack=0;rounded=1;fontSize=14;fontStyle=0;strokeWidth=2;resizeParent=0;resizeLast=1;shadow=0;dashed=0;align=center;" parent="1" vertex="1">
          <mxGeometry x="40" y="80" width="250" height="190" as="geometry" />
        </mxCell>
        <mxCell id="Dr7aWHiYQWJMJAfqMdh1-4" value="business: 业务ID&#xa;key: 同业务唯一标识(配合business,全局唯一)&#xa;persistence: 是否持久化到DB&#xa;persistenceExpireTime: 持久化过期时间&#xa;cacheExpireTime: 过期时间&#xa;timeUnit: 时间单位&#xa;&#xa;" style="align=left;strokeColor=none;fillColor=none;spacingLeft=4;fontSize=12;verticalAlign=top;resizable=0;rotatable=0;part=1;" parent="Dr7aWHiYQWJMJAfqMdh1-3" vertex="1">
          <mxGeometry y="30" width="250" height="160" as="geometry" />
        </mxCell>
        <mxCell id="Dr7aWHiYQWJMJAfqMdh1-1" value="@Idempotent(注解类)" style="swimlane;childLayout=stackLayout;horizontal=1;startSize=30;horizontalStack=0;rounded=1;fontSize=14;fontStyle=0;strokeWidth=2;resizeParent=0;resizeLast=1;shadow=0;dashed=0;align=center;" parent="1" vertex="1">
          <mxGeometry x="40" y="333" width="250" height="185" as="geometry" />
        </mxCell>
        <mxCell id="Dr7aWHiYQWJMJAfqMdh1-2" value="business: 业务ID&#xa;key: 同业务唯一标识(配合business,全局唯一)&#xa;persistence: 是否持久化到DB&#xa;persistenceExpireTime: 持久化过期时间&#xa;cacheExpireTime: 过期时间&#xa;timeUnit: 时间单位&#xa;successCallback: 成功回调方法&#xa;failCallback : 失败回调方法&#xa;&#xa;&#xa;" style="align=left;strokeColor=none;fillColor=none;spacingLeft=4;fontSize=12;verticalAlign=top;resizable=0;rotatable=0;part=1;" parent="Dr7aWHiYQWJMJAfqMdh1-1" vertex="1">
          <mxGeometry y="30" width="250" height="155" as="geometry" />
        </mxCell>
        <mxCell id="N3oFsb0zca_vRXjRVCQ4-1" value="Idempotent(接口类)" style="swimlane;childLayout=stackLayout;horizontal=1;startSize=30;horizontalStack=0;rounded=1;fontSize=14;fontStyle=0;strokeWidth=2;resizeParent=0;resizeLast=1;shadow=0;dashed=0;align=center;" parent="1" vertex="1">
          <mxGeometry x="25" y="580" width="275" height="540" as="geometry" />
        </mxCell>
        <mxCell id="N3oFsb0zca_vRXjRVCQ4-2" value="// 全部参数&#xa;execute(&#xa;String business, 业务ID&#xa;String key,  同业务唯一标识&#xa;int cacheExpireTime, 缓存失效时间&#xa;boolean persistence, 是否持久化到DB&#xa;int persistenceExpireTime,   DB过期时间&#xa;TimeUnit timeUnit, 时间单位&#xa;Supplier&lt;T&gt; successCallback, 成功回调&#xa;Supplier&lt;T&gt; failCallback 失败回调&#xa;)&#xa;&#xa;// 不需要持久化&#xa;execute(&#xa;String business, 业务ID&#xa;String key,  同业务唯一标识&#xa;int expireTime, 缓存失效时间&#xa;TimeUnit timeUnit, 时间单位&#xa;Supplier&lt;T&gt; successCallback, 成功回调&#xa;Supplier&lt;T&gt; failCallback 失败回调&#xa;)&#xa;&#xa;// 不需要失败回调&#xa;execute(&#xa;String business, 业务ID&#xa;String key,  同业务唯一标识&#xa;int expireTime, 缓存失效时间&#xa;boolean persistence, 是否持久化到DB&#xa;int persistenceExpireTime,   DB过期时间&#xa;TimeUnit timeUnit, 时间单位&#xa;Supplier&lt;T&gt; successCallback 成功回调&#xa;)&#xa;" style="align=left;strokeColor=none;fillColor=none;spacingLeft=4;fontSize=12;verticalAlign=top;resizable=0;rotatable=0;part=1;" parent="N3oFsb0zca_vRXjRVCQ4-1" vertex="1">
          <mxGeometry y="30" width="275" height="510" as="geometry" />
        </mxCell>
        <mxCell id="N3oFsb0zca_vRXjRVCQ4-3" value="" style="shape=umlLifeline;participant=umlActor;perimeter=lifelinePerimeter;whiteSpace=wrap;html=1;container=1;collapsible=0;recursiveResize=0;verticalAlign=top;spacingTop=36;outlineConnect=0;" parent="1" vertex="1">
          <mxGeometry x="360" y="80" width="20" height="1480" as="geometry" />
        </mxCell>
        <mxCell id="N3oFsb0zca_vRXjRVCQ4-29" value="" style="html=1;points=[];perimeter=orthogonalPerimeter;" parent="N3oFsb0zca_vRXjRVCQ4-3" vertex="1">
          <mxGeometry x="5" y="470" width="10" height="61" as="geometry" />
        </mxCell>
        <mxCell id="N3oFsb0zca_vRXjRVCQ4-69" value="" style="html=1;points=[];perimeter=orthogonalPerimeter;" parent="N3oFsb0zca_vRXjRVCQ4-3" vertex="1">
          <mxGeometry x="5" y="1040" width="10" height="60" as="geometry" />
        </mxCell>
        <mxCell id="N3oFsb0zca_vRXjRVCQ4-7" value="" style="shape=umlLifeline;participant=umlEntity;perimeter=lifelinePerimeter;whiteSpace=wrap;html=1;container=1;collapsible=0;recursiveResize=0;verticalAlign=top;spacingTop=36;outlineConnect=0;" parent="1" vertex="1">
          <mxGeometry x="530" y="80" width="60" height="1480" as="geometry" />
        </mxCell>
        <mxCell id="N3oFsb0zca_vRXjRVCQ4-12" value="" style="html=1;points=[];perimeter=orthogonalPerimeter;" parent="N3oFsb0zca_vRXjRVCQ4-7" vertex="1">
          <mxGeometry x="25" y="60" width="10" height="40" as="geometry" />
        </mxCell>
        <mxCell id="N3oFsb0zca_vRXjRVCQ4-15" value="通用切面" style="text;align=center;fontStyle=1;verticalAlign=middle;spacingLeft=3;spacingRight=3;strokeColor=none;rotatable=0;points=[[0,0.5],[1,0.5]];portConstraint=eastwest;" parent="N3oFsb0zca_vRXjRVCQ4-7" vertex="1">
          <mxGeometry x="-10" y="7" width="80" height="26" as="geometry" />
        </mxCell>
        <mxCell id="N3oFsb0zca_vRXjRVCQ4-28" value="" style="html=1;points=[];perimeter=orthogonalPerimeter;" parent="N3oFsb0zca_vRXjRVCQ4-7" vertex="1">
          <mxGeometry x="25" y="120" width="10" height="29" as="geometry" />
        </mxCell>
        <mxCell id="N3oFsb0zca_vRXjRVCQ4-35" value="" style="html=1;points=[];perimeter=orthogonalPerimeter;" parent="N3oFsb0zca_vRXjRVCQ4-7" vertex="1">
          <mxGeometry x="25" y="350" width="10" height="54" as="geometry" />
        </mxCell>
        <mxCell id="N3oFsb0zca_vRXjRVCQ4-41" value="" style="html=1;points=[];perimeter=orthogonalPerimeter;" parent="N3oFsb0zca_vRXjRVCQ4-7" vertex="1">
          <mxGeometry x="25" y="510" width="10" height="40" as="geometry" />
        </mxCell>
        <mxCell id="N3oFsb0zca_vRXjRVCQ4-48" value="" style="html=1;points=[];perimeter=orthogonalPerimeter;" parent="N3oFsb0zca_vRXjRVCQ4-7" vertex="1">
          <mxGeometry x="25" y="630" width="10" height="40" as="geometry" />
        </mxCell>
        <mxCell id="N3oFsb0zca_vRXjRVCQ4-61" value="" style="html=1;points=[];perimeter=orthogonalPerimeter;" parent="N3oFsb0zca_vRXjRVCQ4-7" vertex="1">
          <mxGeometry x="25" y="720" width="10" height="40" as="geometry" />
        </mxCell>
        <mxCell id="N3oFsb0zca_vRXjRVCQ4-65" value="" style="html=1;points=[];perimeter=orthogonalPerimeter;" parent="N3oFsb0zca_vRXjRVCQ4-7" vertex="1">
          <mxGeometry x="25" y="904" width="10" height="40" as="geometry" />
        </mxCell>
        <mxCell id="N3oFsb0zca_vRXjRVCQ4-66" value="&lt;span style=&quot;font-size: 12px ; text-align: center ; background-color: rgb(248 , 249 , 250)&quot;&gt;持久化&lt;/span&gt;" style="edgeStyle=orthogonalEdgeStyle;html=1;align=left;spacingLeft=2;endArrow=block;rounded=0;entryX=1;entryY=0;exitX=0.599;exitY=0.997;exitDx=0;exitDy=0;exitPerimeter=0;" parent="N3oFsb0zca_vRXjRVCQ4-7" source="N3oFsb0zca_vRXjRVCQ4-61" target="N3oFsb0zca_vRXjRVCQ4-65" edge="1">
          <mxGeometry x="0.0111" y="-40" relative="1" as="geometry">
            <mxPoint x="30" y="824" as="sourcePoint" />
            <Array as="points">
              <mxPoint x="190" y="760" />
              <mxPoint x="190" y="904" />
            </Array>
            <mxPoint as="offset" />
          </mxGeometry>
        </mxCell>
        <mxCell id="N3oFsb0zca_vRXjRVCQ4-68" value="" style="html=1;points=[];perimeter=orthogonalPerimeter;" parent="N3oFsb0zca_vRXjRVCQ4-7" vertex="1">
          <mxGeometry x="25" y="982" width="10" height="40" as="geometry" />
        </mxCell>
        <mxCell id="N3oFsb0zca_vRXjRVCQ4-97" value="" style="html=1;points=[];perimeter=orthogonalPerimeter;" parent="N3oFsb0zca_vRXjRVCQ4-7" vertex="1">
          <mxGeometry x="25" y="250" width="10" height="40" as="geometry" />
        </mxCell>
        <mxCell id="N3oFsb0zca_vRXjRVCQ4-125" value="" style="html=1;points=[];perimeter=orthogonalPerimeter;" parent="N3oFsb0zca_vRXjRVCQ4-7" vertex="1">
          <mxGeometry x="25" y="827" width="10" height="40" as="geometry" />
        </mxCell>
        <mxCell id="N3oFsb0zca_vRXjRVCQ4-131" value="" style="edgeStyle=orthogonalEdgeStyle;rounded=0;orthogonalLoop=1;jettySize=auto;html=1;exitX=0.9;exitY=0.583;exitDx=0;exitDy=0;exitPerimeter=0;entryX=1.1;entryY=0.506;entryDx=0;entryDy=0;entryPerimeter=0;curved=1;" parent="N3oFsb0zca_vRXjRVCQ4-7" source="N3oFsb0zca_vRXjRVCQ4-97" target="N3oFsb0zca_vRXjRVCQ4-35" edge="1">
          <mxGeometry relative="1" as="geometry">
            <mxPoint x="30" y="305" as="sourcePoint" />
            <mxPoint x="35" y="497" as="targetPoint" />
            <Array as="points">
              <mxPoint x="80" y="273" />
              <mxPoint x="80" y="377" />
            </Array>
          </mxGeometry>
        </mxCell>
        <mxCell id="N3oFsb0zca_vRXjRVCQ4-132" value="持久化" style="edgeLabel;html=1;align=center;verticalAlign=middle;resizable=0;points=[];" parent="N3oFsb0zca_vRXjRVCQ4-131" vertex="1" connectable="0">
          <mxGeometry x="-0.3165" y="1" relative="1" as="geometry">
            <mxPoint as="offset" />
          </mxGeometry>
        </mxCell>
        <mxCell id="NTk_8b70b5YTHRILiDl3-3" value="不持久化" style="edgeStyle=orthogonalEdgeStyle;html=1;align=left;spacingLeft=2;endArrow=block;rounded=0;entryX=0.633;entryY=0.017;entryDx=0;entryDy=0;entryPerimeter=0;curved=1;" parent="N3oFsb0zca_vRXjRVCQ4-7" target="N3oFsb0zca_vRXjRVCQ4-48" edge="1">
          <mxGeometry relative="1" as="geometry">
            <mxPoint x="31" y="270" as="sourcePoint" />
            <Array as="points">
              <mxPoint x="450" y="270" />
              <mxPoint x="450" y="600" />
              <mxPoint x="31" y="600" />
            </Array>
            <mxPoint x="480" y="260" as="targetPoint" />
          </mxGeometry>
        </mxCell>
        <mxCell id="N3oFsb0zca_vRXjRVCQ4-13" value="发送短信" style="html=1;verticalAlign=bottom;startArrow=oval;endArrow=block;startSize=8;" parent="1" source="N3oFsb0zca_vRXjRVCQ4-3" target="N3oFsb0zca_vRXjRVCQ4-12" edge="1">
          <mxGeometry relative="1" as="geometry">
            <mxPoint x="490" y="180" as="sourcePoint" />
            <Array as="points">
              <mxPoint x="390" y="140" />
            </Array>
          </mxGeometry>
        </mxCell>
        <mxCell id="N3oFsb0zca_vRXjRVCQ4-19" value="" style="shape=umlLifeline;participant=umlEntity;perimeter=lifelinePerimeter;whiteSpace=wrap;html=1;container=1;collapsible=0;recursiveResize=0;verticalAlign=top;spacingTop=36;outlineConnect=0;" parent="1" vertex="1">
          <mxGeometry x="700" y="80" width="60" height="1480" as="geometry" />
        </mxCell>
        <mxCell id="N3oFsb0zca_vRXjRVCQ4-21" value="缓存" style="text;align=center;fontStyle=1;verticalAlign=middle;spacingLeft=3;spacingRight=3;strokeColor=none;rotatable=0;points=[[0,0.5],[1,0.5]];portConstraint=eastwest;" parent="N3oFsb0zca_vRXjRVCQ4-19" vertex="1">
          <mxGeometry x="-10" y="7" width="80" height="26" as="geometry" />
        </mxCell>
        <mxCell id="N3oFsb0zca_vRXjRVCQ4-25" value="" style="html=1;points=[];perimeter=orthogonalPerimeter;" parent="N3oFsb0zca_vRXjRVCQ4-19" vertex="1">
          <mxGeometry x="25" y="90" width="10" height="40" as="geometry" />
        </mxCell>
        <mxCell id="N3oFsb0zca_vRXjRVCQ4-58" value="" style="html=1;points=[];perimeter=orthogonalPerimeter;" parent="N3oFsb0zca_vRXjRVCQ4-19" vertex="1">
          <mxGeometry x="25" y="680" width="10" height="40" as="geometry" />
        </mxCell>
        <mxCell id="N3oFsb0zca_vRXjRVCQ4-22" value="" style="shape=umlLifeline;participant=umlEntity;perimeter=lifelinePerimeter;whiteSpace=wrap;html=1;container=1;collapsible=0;recursiveResize=0;verticalAlign=top;spacingTop=36;outlineConnect=0;" parent="1" vertex="1">
          <mxGeometry x="870" y="80" width="60" height="1480" as="geometry" />
        </mxCell>
        <mxCell id="N3oFsb0zca_vRXjRVCQ4-24" value="DB" style="text;align=center;fontStyle=1;verticalAlign=middle;spacingLeft=3;spacingRight=3;strokeColor=none;rotatable=0;points=[[0,0.5],[1,0.5]];portConstraint=eastwest;" parent="N3oFsb0zca_vRXjRVCQ4-22" vertex="1">
          <mxGeometry x="-10" y="7" width="80" height="26" as="geometry" />
        </mxCell>
        <mxCell id="N3oFsb0zca_vRXjRVCQ4-38" value="" style="html=1;points=[];perimeter=orthogonalPerimeter;" parent="N3oFsb0zca_vRXjRVCQ4-22" vertex="1">
          <mxGeometry x="25" y="410" width="10" height="40" as="geometry" />
        </mxCell>
        <mxCell id="N3oFsb0zca_vRXjRVCQ4-62" value="" style="html=1;points=[];perimeter=orthogonalPerimeter;" parent="N3oFsb0zca_vRXjRVCQ4-22" vertex="1">
          <mxGeometry x="25" y="924" width="10" height="80" as="geometry" />
        </mxCell>
        <mxCell id="N3oFsb0zca_vRXjRVCQ4-26" value="查询缓存" style="html=1;verticalAlign=bottom;endArrow=block;entryX=0;entryY=0;" parent="1" target="N3oFsb0zca_vRXjRVCQ4-25" edge="1">
          <mxGeometry relative="1" as="geometry">
            <mxPoint x="570" y="170" as="sourcePoint" />
            <Array as="points">
              <mxPoint x="560" y="170" />
            </Array>
          </mxGeometry>
        </mxCell>
        <mxCell id="N3oFsb0zca_vRXjRVCQ4-27" value="有key" style="html=1;verticalAlign=bottom;endArrow=open;dashed=1;endSize=8;exitX=0;exitY=0.95;" parent="1" source="N3oFsb0zca_vRXjRVCQ4-25" target="N3oFsb0zca_vRXjRVCQ4-28" edge="1">
          <mxGeometry relative="1" as="geometry">
            <mxPoint x="565" y="220" as="targetPoint" />
            <Array as="points" />
          </mxGeometry>
        </mxCell>
        <mxCell id="N3oFsb0zca_vRXjRVCQ4-30" value="调用fail callback" style="html=1;verticalAlign=bottom;endArrow=open;dashed=1;endSize=8;edgeStyle=orthogonalEdgeStyle;curved=1;" parent="1" target="N3oFsb0zca_vRXjRVCQ4-29" edge="1">
          <mxGeometry relative="1" as="geometry">
            <mxPoint x="560" y="230" as="sourcePoint" />
            <mxPoint x="480" y="230" as="targetPoint" />
            <Array as="points">
              <mxPoint x="480" y="230" />
              <mxPoint x="480" y="520" />
              <mxPoint x="370" y="520" />
            </Array>
          </mxGeometry>
        </mxCell>
        <mxCell id="N3oFsb0zca_vRXjRVCQ4-31" value="无key" style="html=1;verticalAlign=bottom;endArrow=open;dashed=1;endSize=8;edgeStyle=orthogonalEdgeStyle;curved=1;exitX=0.38;exitY=1.038;exitDx=0;exitDy=0;exitPerimeter=0;" parent="1" source="N3oFsb0zca_vRXjRVCQ4-25" target="N3oFsb0zca_vRXjRVCQ4-97" edge="1">
          <mxGeometry x="0.824" y="50" relative="1" as="geometry">
            <mxPoint x="690" y="250" as="sourcePoint" />
            <mxPoint x="570" y="260" as="targetPoint" />
            <mxPoint as="offset" />
          </mxGeometry>
        </mxCell>
        <mxCell id="N3oFsb0zca_vRXjRVCQ4-39" value="" style="edgeStyle=orthogonalEdgeStyle;curved=1;rounded=0;orthogonalLoop=1;jettySize=auto;html=1;exitX=1.1;exitY=0.537;exitDx=0;exitDy=0;exitPerimeter=0;entryX=0.7;entryY=0.05;entryDx=0;entryDy=0;entryPerimeter=0;" parent="1" source="N3oFsb0zca_vRXjRVCQ4-35" target="N3oFsb0zca_vRXjRVCQ4-38" edge="1">
          <mxGeometry relative="1" as="geometry">
            <mxPoint x="570" y="624" as="sourcePoint" />
            <mxPoint x="899" y="516" as="targetPoint" />
            <Array as="points">
              <mxPoint x="566" y="470" />
              <mxPoint x="902" y="470" />
            </Array>
          </mxGeometry>
        </mxCell>
        <mxCell id="N3oFsb0zca_vRXjRVCQ4-40" value="查询数据库" style="edgeLabel;html=1;align=center;verticalAlign=middle;resizable=0;points=[];" parent="N3oFsb0zca_vRXjRVCQ4-39" vertex="1" connectable="0">
          <mxGeometry x="-0.3165" y="1" relative="1" as="geometry">
            <mxPoint as="offset" />
          </mxGeometry>
        </mxCell>
        <mxCell id="N3oFsb0zca_vRXjRVCQ4-43" value="有记录" style="html=1;verticalAlign=bottom;endArrow=open;dashed=1;endSize=8;exitX=0.392;exitY=1.042;exitDx=0;exitDy=0;exitPerimeter=0;edgeStyle=orthogonalEdgeStyle;curved=1;entryX=0.5;entryY=-0.017;entryDx=0;entryDy=0;entryPerimeter=0;" parent="1" source="N3oFsb0zca_vRXjRVCQ4-38" target="N3oFsb0zca_vRXjRVCQ4-41" edge="1">
          <mxGeometry relative="1" as="geometry">
            <mxPoint x="560.0000000000002" y="660.9999999999999" as="targetPoint" />
            <mxPoint x="720" y="660.9999999999999" as="sourcePoint" />
            <Array as="points">
              <mxPoint x="899" y="570" />
              <mxPoint x="560" y="570" />
            </Array>
          </mxGeometry>
        </mxCell>
        <mxCell id="N3oFsb0zca_vRXjRVCQ4-44" value="调用fail callback" style="html=1;verticalAlign=bottom;endArrow=open;dashed=1;endSize=8;edgeStyle=orthogonalEdgeStyle;curved=1;" parent="1" source="N3oFsb0zca_vRXjRVCQ4-41" target="N3oFsb0zca_vRXjRVCQ4-29" edge="1">
          <mxGeometry relative="1" as="geometry">
            <mxPoint x="560" y="520" as="sourcePoint" />
            <mxPoint x="450" y="510" as="targetPoint" />
            <Array as="points" />
          </mxGeometry>
        </mxCell>
        <mxCell id="N3oFsb0zca_vRXjRVCQ4-46" value="无记录" style="html=1;verticalAlign=bottom;endArrow=open;dashed=1;endSize=8;edgeStyle=orthogonalEdgeStyle;curved=1;exitX=0.392;exitY=1.008;exitDx=0;exitDy=0;exitPerimeter=0;" parent="1" source="N3oFsb0zca_vRXjRVCQ4-38" target="N3oFsb0zca_vRXjRVCQ4-48" edge="1">
          <mxGeometry relative="1" as="geometry">
            <mxPoint x="570.0000000000002" y="671" as="targetPoint" />
            <mxPoint x="908.9200000000001" y="617.6800000000001" as="sourcePoint" />
            <Array as="points" />
          </mxGeometry>
        </mxCell>
        <mxCell id="N3oFsb0zca_vRXjRVCQ4-59" value="记录缓存" style="html=1;verticalAlign=bottom;endArrow=block;entryX=0.433;entryY=0;exitX=1.167;exitY=0.533;exitDx=0;exitDy=0;exitPerimeter=0;edgeStyle=orthogonalEdgeStyle;curved=1;entryDx=0;entryDy=0;entryPerimeter=0;" parent="1" source="N3oFsb0zca_vRXjRVCQ4-48" target="N3oFsb0zca_vRXjRVCQ4-58" edge="1">
          <mxGeometry relative="1" as="geometry">
            <mxPoint x="559.5" y="794" as="sourcePoint" />
          </mxGeometry>
        </mxCell>
        <mxCell id="N3oFsb0zca_vRXjRVCQ4-60" value="" style="html=1;verticalAlign=bottom;endArrow=open;dashed=1;endSize=8;exitX=0;exitY=0.95;" parent="1" source="N3oFsb0zca_vRXjRVCQ4-58" target="N3oFsb0zca_vRXjRVCQ4-61" edge="1">
          <mxGeometry relative="1" as="geometry">
            <mxPoint x="655" y="910" as="targetPoint" />
          </mxGeometry>
        </mxCell>
        <mxCell id="N3oFsb0zca_vRXjRVCQ4-63" value="记录数据库" style="html=1;verticalAlign=bottom;endArrow=block;entryX=0;entryY=0;" parent="1" source="N3oFsb0zca_vRXjRVCQ4-65" target="N3oFsb0zca_vRXjRVCQ4-62" edge="1">
          <mxGeometry relative="1" as="geometry">
            <mxPoint x="825" y="984" as="sourcePoint" />
          </mxGeometry>
        </mxCell>
        <mxCell id="N3oFsb0zca_vRXjRVCQ4-64" value="" style="html=1;verticalAlign=bottom;endArrow=open;dashed=1;endSize=8;exitX=0;exitY=0.95;entryX=0.967;entryY=0.521;entryDx=0;entryDy=0;entryPerimeter=0;" parent="1" source="N3oFsb0zca_vRXjRVCQ4-62" target="N3oFsb0zca_vRXjRVCQ4-68" edge="1">
          <mxGeometry relative="1" as="geometry">
            <mxPoint x="600" y="1084" as="targetPoint" />
          </mxGeometry>
        </mxCell>
        <mxCell id="N3oFsb0zca_vRXjRVCQ4-74" value="成功回调" style="html=1;verticalAlign=bottom;endArrow=open;dashed=1;endSize=8;edgeStyle=orthogonalEdgeStyle;curved=1;exitX=-0.3;exitY=0.533;exitDx=0;exitDy=0;exitPerimeter=0;" parent="1" source="N3oFsb0zca_vRXjRVCQ4-125" target="N3oFsb0zca_vRXjRVCQ4-69" edge="1">
          <mxGeometry x="-0.0557" y="-10" relative="1" as="geometry">
            <mxPoint x="560" y="680" as="sourcePoint" />
            <mxPoint x="375" y="941" as="targetPoint" />
            <Array as="points">
              <mxPoint x="552" y="938" />
              <mxPoint x="370" y="938" />
            </Array>
            <mxPoint as="offset" />
          </mxGeometry>
        </mxCell>
        <mxCell id="N3oFsb0zca_vRXjRVCQ4-75" value="成功回调" style="html=1;verticalAlign=bottom;endArrow=open;dashed=1;endSize=8;edgeStyle=orthogonalEdgeStyle;curved=1;" parent="1" source="N3oFsb0zca_vRXjRVCQ4-68" target="N3oFsb0zca_vRXjRVCQ4-69" edge="1">
          <mxGeometry relative="1" as="geometry">
            <mxPoint x="490" y="1030" as="sourcePoint" />
            <mxPoint x="370" y="1040" as="targetPoint" />
            <Array as="points" />
          </mxGeometry>
        </mxCell>
        <mxCell id="N3oFsb0zca_vRXjRVCQ4-127" value="不持久化" style="text;html=1;align=center;verticalAlign=middle;resizable=0;points=[];autosize=1;" parent="1" vertex="1">
          <mxGeometry x="460" y="870" width="60" height="20" as="geometry" />
        </mxCell>
        <mxCell id="N3oFsb0zca_vRXjRVCQ4-126" value="" style="rounded=0;orthogonalLoop=1;jettySize=auto;html=1;" parent="1" source="N3oFsb0zca_vRXjRVCQ4-127" target="N3oFsb0zca_vRXjRVCQ4-125" edge="1">
          <mxGeometry relative="1" as="geometry" />
        </mxCell>
        <mxCell id="N3oFsb0zca_vRXjRVCQ4-128" value="" style="rounded=0;orthogonalLoop=1;jettySize=auto;html=1;" parent="1" source="N3oFsb0zca_vRXjRVCQ4-61" target="N3oFsb0zca_vRXjRVCQ4-127" edge="1">
          <mxGeometry relative="1" as="geometry">
            <mxPoint x="1090" y="953" as="sourcePoint" />
            <mxPoint x="1090" y="1000" as="targetPoint" />
          </mxGeometry>
        </mxCell>
        <mxCell id="KF4ycY_Uz_4BZj7trhSQ-1" value="&lt;div&gt;&lt;div&gt;&lt;br&gt;&lt;/div&gt;&lt;div&gt;幂等:&lt;/div&gt;&lt;div&gt;&lt;br&gt;&lt;/div&gt;&lt;div&gt;1. 查询缓存:&lt;/div&gt;&lt;/div&gt;&lt;blockquote style=&quot;margin: 0 0 0 40px ; border: none ; padding: 0px&quot;&gt;&lt;div&gt;&lt;div&gt;-&amp;gt; key: idempotent_{business}_{key}_lock&lt;/div&gt;&lt;/div&gt;&lt;/blockquote&gt;&lt;blockquote style=&quot;margin: 0 0 0 40px ; border: none ; padding: 0px&quot;&gt;&lt;div&gt;&lt;div&gt;a. 存在(已经处理过):&amp;nbsp;&lt;/div&gt;&lt;/div&gt;&lt;/blockquote&gt;&lt;blockquote style=&quot;margin: 0 0 0 40px ; border: none ; padding: 0px&quot;&gt;&lt;blockquote style=&quot;margin: 0 0 0 40px ; border: none ; padding: 0px&quot;&gt;&lt;div&gt;&lt;div&gt;返回失败, 调用fail callback&lt;/div&gt;&lt;/div&gt;&lt;/blockquote&gt;&lt;/blockquote&gt;&lt;blockquote style=&quot;margin: 0 0 0 40px ; border: none ; padding: 0px&quot;&gt;&lt;div&gt;&lt;div&gt;b. 不存在:&lt;/div&gt;&lt;/div&gt;&lt;/blockquote&gt;&lt;blockquote style=&quot;margin: 0 0 0 40px ; border: none ; padding: 0px&quot;&gt;&lt;blockquote style=&quot;margin: 0 0 0 40px ; border: none ; padding: 0px&quot;&gt;&lt;div&gt;&lt;div&gt;继续&lt;/div&gt;&lt;/div&gt;&lt;/blockquote&gt;&lt;/blockquote&gt;&lt;div&gt;&lt;div&gt;2. 判断是否过期&lt;/div&gt;&lt;/div&gt;&lt;blockquote style=&quot;margin: 0 0 0 40px ; border: none ; padding: 0px&quot;&gt;&lt;div&gt;&lt;div&gt;-&amp;gt; 请求时间与当前时间差值大于缓存时间 ,则过期&lt;/div&gt;&lt;/div&gt;&lt;div&gt;&lt;div&gt;a. 过期:&lt;/div&gt;&lt;/div&gt;&lt;/blockquote&gt;&lt;blockquote style=&quot;margin: 0 0 0 40px ; border: none ; padding: 0px&quot;&gt;&lt;blockquote style=&quot;margin: 0 0 0 40px ; border: none ; padding: 0px&quot;&gt;&lt;div&gt;&lt;div&gt;-&amp;gt; 判断过期情况:&amp;nbsp;&lt;/div&gt;&lt;div&gt;@ 【持久化】 并且 数据库中【无记录】的数据才任务未处理过&lt;/div&gt;&lt;/div&gt;&lt;div&gt;@ 【不持久化】再次处理&lt;/div&gt;&lt;/blockquote&gt;&lt;blockquote style=&quot;margin: 0 0 0 40px ; border: none ; padding: 0px&quot;&gt;&lt;div&gt;&lt;div&gt;是否持久化：&lt;/div&gt;&lt;/div&gt;&lt;/blockquote&gt;&lt;/blockquote&gt;&lt;blockquote style=&quot;margin: 0 0 0 40px ; border: none ; padding: 0px&quot;&gt;&lt;blockquote style=&quot;margin: 0 0 0 40px ; border: none ; padding: 0px&quot;&gt;&lt;blockquote style=&quot;margin: 0 0 0 40px ; border: none ; padding: 0px&quot;&gt;&lt;div&gt;&lt;div&gt;i. 不持久化:&lt;/div&gt;&lt;/div&gt;&lt;/blockquote&gt;&lt;/blockquote&gt;&lt;blockquote style=&quot;margin: 0 0 0 40px ; border: none ; padding: 0px&quot;&gt;&lt;blockquote style=&quot;margin: 0 0 0 40px ; border: none ; padding: 0px&quot;&gt;&lt;blockquote style=&quot;margin: 0 0 0 40px ; border: none ; padding: 0px&quot;&gt;继续b(未过期)操作&lt;br&gt;&lt;/blockquote&gt;&lt;/blockquote&gt;&lt;/blockquote&gt;&lt;blockquote style=&quot;margin: 0 0 0 40px ; border: none ; padding: 0px&quot;&gt;&lt;blockquote style=&quot;margin: 0 0 0 40px ; border: none ; padding: 0px&quot;&gt;&lt;div&gt;&lt;div&gt;ii. 持久化:&lt;/div&gt;&lt;/div&gt;&lt;/blockquote&gt;&lt;/blockquote&gt;&lt;/blockquote&gt;&lt;blockquote style=&quot;margin: 0 0 0 40px ; border: none ; padding: 0px&quot;&gt;&lt;blockquote style=&quot;margin: 0 0 0 40px ; border: none ; padding: 0px&quot;&gt;&lt;div&gt;&lt;div&gt;一. 有记录:&lt;/div&gt;&lt;/div&gt;&lt;/blockquote&gt;&lt;/blockquote&gt;&lt;blockquote style=&quot;margin: 0 0 0 40px ; border: none ; padding: 0px&quot;&gt;&lt;blockquote style=&quot;margin: 0 0 0 40px ; border: none ; padding: 0px&quot;&gt;&lt;blockquote style=&quot;margin: 0 0 0 40px ; border: none ; padding: 0px&quot;&gt;&lt;div&gt;&lt;div&gt;1. 记录的状态为成功:&lt;/div&gt;&lt;/div&gt;&lt;/blockquote&gt;&lt;/blockquote&gt;&lt;blockquote style=&quot;margin: 0 0 0 40px ; border: none ; padding: 0px&quot;&gt;&lt;blockquote style=&quot;margin: 0 0 0 40px ; border: none ; padding: 0px&quot;&gt;&lt;blockquote style=&quot;margin: 0 0 0 40px ; border: none ; padding: 0px&quot;&gt;&lt;div&gt;&lt;div&gt;返回失败, 调用fail callback&lt;/div&gt;&lt;/div&gt;&lt;/blockquote&gt;&lt;/blockquote&gt;&lt;/blockquote&gt;&lt;blockquote style=&quot;margin: 0 0 0 40px ; border: none ; padding: 0px&quot;&gt;&lt;blockquote style=&quot;margin: 0 0 0 40px ; border: none ; padding: 0px&quot;&gt;&lt;div&gt;&lt;div&gt;2. 记录的状态为失败&lt;/div&gt;&lt;/div&gt;&lt;/blockquote&gt;&lt;/blockquote&gt;&lt;blockquote style=&quot;margin: 0 0 0 40px ; border: none ; padding: 0px&quot;&gt;&lt;blockquote style=&quot;margin: 0 0 0 40px ; border: none ; padding: 0px&quot;&gt;&lt;blockquote style=&quot;margin: 0 0 0 40px ; border: none ; padding: 0px&quot;&gt;&lt;div&gt;&lt;div&gt;A. 更新状态为成功&lt;/div&gt;&lt;/div&gt;&lt;/blockquote&gt;&lt;/blockquote&gt;&lt;/blockquote&gt;&lt;blockquote style=&quot;margin: 0 0 0 40px ; border: none ; padding: 0px&quot;&gt;&lt;blockquote style=&quot;margin: 0 0 0 40px ; border: none ; padding: 0px&quot;&gt;&lt;blockquote style=&quot;margin: 0 0 0 40px ; border: none ; padding: 0px&quot;&gt;&lt;div&gt;&lt;div&gt;B. 执行业务&lt;/div&gt;&lt;/div&gt;&lt;/blockquote&gt;&lt;/blockquote&gt;&lt;/blockquote&gt;&lt;blockquote style=&quot;margin: 0 0 0 40px ; border: none ; padding: 0px&quot;&gt;&lt;blockquote style=&quot;margin: 0 0 0 40px ; border: none ; padding: 0px&quot;&gt;&lt;blockquote style=&quot;margin: 0 0 0 40px ; border: none ; padding: 0px&quot;&gt;&lt;div&gt;&lt;div&gt;C. 业务执行失败,更新状态为失败&lt;/div&gt;&lt;/div&gt;&lt;/blockquote&gt;&lt;/blockquote&gt;&lt;/blockquote&gt;&lt;/blockquote&gt;&lt;blockquote style=&quot;margin: 0 0 0 40px ; border: none ; padding: 0px&quot;&gt;&lt;blockquote style=&quot;margin: 0 0 0 40px ; border: none ; padding: 0px&quot;&gt;&lt;div&gt;&lt;div&gt;二. 无记录:&lt;/div&gt;&lt;/div&gt;&lt;/blockquote&gt;&lt;/blockquote&gt;&lt;blockquote style=&quot;margin: 0 0 0 40px ; border: none ; padding: 0px&quot;&gt;&lt;blockquote style=&quot;margin: 0 0 0 40px ; border: none ; padding: 0px&quot;&gt;&lt;blockquote style=&quot;margin: 0 0 0 40px ; border: none ; padding: 0px&quot;&gt;&lt;div&gt;&lt;div&gt;继续b(未过期)操作&lt;/div&gt;&lt;/div&gt;&lt;/blockquote&gt;&lt;/blockquote&gt;&lt;/blockquote&gt;&lt;blockquote style=&quot;margin: 0 0 0 40px ; border: none ; padding: 0px&quot;&gt;&lt;div&gt;&lt;div&gt;b. 未过期:&lt;/div&gt;&lt;/div&gt;&lt;/blockquote&gt;&lt;blockquote style=&quot;margin: 0 0 0 40px ; border: none ; padding: 0px&quot;&gt;&lt;blockquote style=&quot;margin: 0 0 0 40px ; border: none ; padding: 0px&quot;&gt;&lt;div&gt;&lt;div&gt;-&amp;gt; 生成记录&lt;/div&gt;&lt;/div&gt;&lt;/blockquote&gt;&lt;blockquote style=&quot;margin: 0 0 0 40px ; border: none ; padding: 0px&quot;&gt;&lt;div&gt;&lt;div&gt;i. 记录缓存&lt;/div&gt;&lt;/div&gt;&lt;/blockquote&gt;&lt;blockquote style=&quot;margin: 0 0 0 40px ; border: none ; padding: 0px&quot;&gt;&lt;div&gt;&lt;div&gt;ii. 是否记录数据库&lt;/div&gt;&lt;/div&gt;&lt;/blockquote&gt;&lt;/blockquote&gt;&lt;blockquote style=&quot;margin: 0 0 0 40px ; border: none ; padding: 0px&quot;&gt;&lt;blockquote style=&quot;margin: 0 0 0 40px ; border: none ; padding: 0px&quot;&gt;&lt;blockquote style=&quot;margin: 0 0 0 40px ; border: none ; padding: 0px&quot;&gt;&lt;div&gt;&lt;div&gt;一. 不记录&lt;/div&gt;&lt;/div&gt;&lt;/blockquote&gt;&lt;/blockquote&gt;&lt;/blockquote&gt;&lt;blockquote style=&quot;margin: 0 0 0 40px ; border: none ; padding: 0px&quot;&gt;&lt;blockquote style=&quot;margin: 0 0 0 40px ; border: none ; padding: 0px&quot;&gt;&lt;blockquote style=&quot;margin: 0 0 0 40px ; border: none ; padding: 0px&quot;&gt;&lt;blockquote style=&quot;margin: 0 0 0 40px ; border: none ; padding: 0px&quot;&gt;&lt;div&gt;&lt;div&gt;返回成功, 调用success callback(发送操作)&lt;/div&gt;&lt;/div&gt;&lt;/blockquote&gt;&lt;/blockquote&gt;&lt;/blockquote&gt;&lt;/blockquote&gt;&lt;blockquote style=&quot;margin: 0 0 0 40px ; border: none ; padding: 0px&quot;&gt;&lt;blockquote style=&quot;margin: 0 0 0 40px ; border: none ; padding: 0px&quot;&gt;&lt;blockquote style=&quot;margin: 0 0 0 40px ; border: none ; padding: 0px&quot;&gt;&lt;div&gt;&lt;div&gt;二. 记录&lt;/div&gt;&lt;/div&gt;&lt;/blockquote&gt;&lt;/blockquote&gt;&lt;blockquote style=&quot;margin: 0 0 0 40px ; border: none ; padding: 0px&quot;&gt;&lt;blockquote style=&quot;margin: 0 0 0 40px ; border: none ; padding: 0px&quot;&gt;&lt;blockquote style=&quot;margin: 0 0 0 40px ; border: none ; padding: 0px&quot;&gt;&lt;div&gt;&lt;div&gt;1. 数据库插入, 默认状态成功&lt;/div&gt;&lt;/div&gt;&lt;/blockquote&gt;&lt;/blockquote&gt;&lt;/blockquote&gt;&lt;blockquote style=&quot;margin: 0 0 0 40px ; border: none ; padding: 0px&quot;&gt;&lt;blockquote style=&quot;margin: 0 0 0 40px ; border: none ; padding: 0px&quot;&gt;&lt;blockquote style=&quot;margin: 0 0 0 40px ; border: none ; padding: 0px&quot;&gt;&lt;div&gt;&lt;div&gt;2. 执行业务&lt;/div&gt;&lt;/div&gt;&lt;/blockquote&gt;&lt;/blockquote&gt;&lt;/blockquote&gt;&lt;blockquote style=&quot;margin: 0 0 0 40px ; border: none ; padding: 0px&quot;&gt;&lt;blockquote style=&quot;margin: 0 0 0 40px ; border: none ; padding: 0px&quot;&gt;&lt;blockquote style=&quot;margin: 0 0 0 40px ; border: none ; padding: 0px&quot;&gt;&lt;div&gt;&lt;div&gt;3. 业务执行失败,更新状态为失败&lt;/div&gt;&lt;/div&gt;&lt;/blockquote&gt;&lt;/blockquote&gt;&lt;/blockquote&gt;&lt;/blockquote&gt;&lt;div&gt;&lt;span&gt;   &lt;/span&gt;&lt;/div&gt;" style="shape=note;whiteSpace=wrap;html=1;size=14;verticalAlign=top;align=left;spacingTop=-6;" vertex="1" parent="1">
          <mxGeometry x="1210" y="80" width="570" height="570" as="geometry" />
        </mxCell>
      </root>
    </mxGraphModel>
  </diagram>
</mxfile>
